<svg width="27" height="27" xmlns="http://www.w3.org/2000/svg" xmlns:xlink="http://www.w3.org/1999/xlink" xml:space="preserve" overflow="hidden"><defs><clipPath id="clip0"><rect x="13" y="951" width="27" height="27"/></clipPath></defs><g clip-path="url(#clip0)" transform="translate(-13 -951)"><path d="M13.3955 955.116 13.3955 969.766C13.3955 970.446 13.9467 970.997 14.6267 970.997L32.0925 970.997C32.7725 970.997 33.3237 970.446 33.3237 969.766L33.3237 955.116C33.3237 954.436 32.7725 953.885 32.0925 953.885L14.6267 953.885C13.9467 953.885 13.3955 954.436 13.3955 955.116Z" fill="#EBEAE6"/><path d="M32.0925 953.885 30.8269 953.885C31.5069 953.885 32.0581 954.436 32.0581 955.116L32.0581 969.766C32.0581 970.446 31.5069 970.997 30.8269 970.997L32.0925 970.997C32.7725 970.997 33.3237 970.446 33.3237 969.766L33.3237 955.116C33.3237 954.436 32.7725 953.885 32.0925 953.885Z" fill="#C9C5B5"/><path d="M32.0925 953.885 14.6267 953.885C13.9467 953.885 13.3955 954.436 13.3955 955.116L13.3955 959.99 33.3237 959.99 33.3237 955.116C33.3237 954.436 32.7725 953.885 32.0925 953.885Z" fill="#FF5A59"/><path d="M33.1751 954.529C33.1562 954.494 33.1356 954.46 33.1135 954.427 33.1024 954.411 33.091 954.395 33.0791 954.379 33.0571 954.35 33.0336 954.321 33.0091 954.294 32.9941 954.277 32.9789 954.261 32.9631 954.245 32.7403 954.022 32.4325 953.885 32.0925 953.885L30.8269 953.885C31.5069 953.885 32.0582 954.436 32.0582 955.116L32.0582 959.99 33.3238 959.99 33.3238 955.116C33.3238 954.946 33.2893 954.784 33.227 954.637 33.2114 954.6 33.1941 954.564 33.1751 954.529Z" fill="#CE3A4C"/><path d="M29.9773 959.984 29.9773 964.039 38.9981 964.039 38.9981 959.628C38.9981 958.736 38.2747 958.013 37.3824 958.013L36.7265 958.013 36.6768 957.91C36.4095 957.36 35.8512 957.01 35.2392 957.01L32.9504 957.01C31.3084 957.01 29.9773 958.342 29.9773 959.984Z" fill="#F9DC6A"/><path d="M37.3824 958.013 36.7264 958.013 36.6767 957.911C36.4094 957.36 35.8512 957.01 35.2391 957.01L34.0752 957.01C34.6872 957.01 35.2455 957.36 35.5128 957.911L35.5625 958.013 36.2184 958.013C37.1107 958.013 37.8341 958.736 37.8341 959.628L37.8341 964.039 38.998 964.039 38.998 959.628C38.9981 958.736 38.2747 958.013 37.3824 958.013Z" fill="#E5AC51"/><path d="M39.4758 975.115 29.4996 975.115C29.4227 975.115 29.3629 975.048 29.3718 974.972L29.7435 971.757C29.9135 970.285 31.1596 969.175 32.6412 969.175L36.3341 969.175C37.8157 969.175 39.0618 970.285 39.2319 971.757L39.6036 974.972C39.6125 975.048 39.5527 975.115 39.4758 975.115Z" fill="#2BB4F3"/><path d="M39.6036 974.972 39.2319 971.757C39.0619 970.285 37.8158 969.175 36.3342 969.175L35.0208 969.175C36.5024 969.175 37.7485 970.285 37.9186 971.757L38.2903 974.972C38.2992 975.048 38.2394 975.115 38.1624 975.115L39.4758 975.115C39.5527 975.115 39.6125 975.048 39.6036 974.972Z" fill="#1687C4"/><path d="M33.1456 966.937 33.1456 969.642C33.1456 970.383 33.7465 970.984 34.4877 970.984L34.4877 970.984C35.2289 970.984 35.8297 970.383 35.8297 969.642L35.8297 966.937 33.1456 966.937Z" fill="#F2A077"/><path d="M39.6045 963.887 39.6045 964.273C39.6045 964.725 39.2386 965.091 38.7872 965.091L37.9823 965.091C37.9344 966.014 37.5289 966.844 36.901 967.442 36.273 968.04 35.4233 968.407 34.4877 968.407 32.6165 968.407 31.0884 966.939 30.9931 965.091L30.1882 965.091C29.7368 965.091 29.3709 964.725 29.3709 964.273L29.3709 963.887C29.3709 963.435 29.7368 963.069 30.1882 963.069L30.9881 963.069 30.9881 961.608 33.9261 961.608C35.3237 961.608 36.4851 960.598 36.7192 959.267 36.7395 959.152 36.8772 959.104 36.9642 959.183 37.5926 959.751 37.9873 960.573 37.9873 961.488L37.9873 963.069 38.7873 963.069C39.2386 963.069 39.6045 963.435 39.6045 963.887Z" fill="#FFCCAA"/><path d="M38.7872 963.069 37.9873 963.069 37.9873 961.488C37.9873 960.573 37.5926 959.751 36.9641 959.183 36.8772 959.104 36.7394 959.152 36.7191 959.267 36.692 959.421 36.6519 959.571 36.601 959.716 36.9147 960.218 37.0993 960.829 37.0993 961.488L37.0993 963.069 37.0948 965.091C37.0519 966.014 36.6882 966.844 36.1249 967.442 35.618 967.98 34.9499 968.33 34.2098 968.395 34.3016 968.402 34.3941 968.407 34.4877 968.407 35.4233 968.407 36.273 968.04 36.901 967.442 37.5289 966.844 37.9345 966.014 37.9823 965.091L38.7872 965.091C39.2386 965.091 39.6045 964.725 39.6045 964.273L39.6045 963.887C39.6045 963.435 39.2386 963.069 38.7872 963.069Z" fill="#F2A077"/><path d="M18.0656 955.64 18.0656 958.224C18.0656 958.484 18.6994 958.486 18.6994 958.224L18.6994 957.123 19.508 957.123 19.508 958.224C19.508 958.485 20.1419 958.484 20.1419 958.224L20.1419 955.64C20.1419 955.385 19.508 955.383 19.508 955.64L19.508 956.635 18.6994 956.635 18.6994 955.64C18.6994 955.383 18.0656 955.384 18.0656 955.64Z" fill="#EBEAE6"/><path d="M22.3033 956.001C22.5555 956.001 22.5619 955.449 22.3033 955.449L20.8569 955.449C20.781 955.449 20.716 955.466 20.6619 955.5 20.6077 955.533 20.5806 955.582 20.5806 955.644L20.5806 958.224C20.5806 958.286 20.6077 958.334 20.6619 958.368 20.716 958.402 20.781 958.419 20.8569 958.419L22.3033 958.419C22.5613 958.419 22.5562 957.866 22.3033 957.866L21.2144 957.866 21.2144 957.176 21.8239 957.176C21.8862 957.176 21.9336 957.151 21.9661 957.102 21.9986 957.054 22.0149 956.998 22.0149 956.936 22.0149 956.868 21.9979 956.81 21.9641 956.761 21.9302 956.712 21.8835 956.688 21.8239 956.688L21.2144 956.688 21.2144 956.001 22.3033 956.001Z" fill="#EBEAE6"/><path d="M22.7705 955.64C22.7978 958.36 22.7059 958.277 22.8518 958.368 22.9059 958.402 22.9709 958.419 23.0468 958.419L24.3307 958.419C24.5745 958.419 24.5748 957.866 24.3307 957.866L23.4043 957.866 23.4043 955.64C23.4043 955.385 22.7705 955.383 22.7705 955.64Z" fill="#EBEAE6"/><path d="M24.7695 955.64C24.7968 958.36 24.7049 958.277 24.8507 958.368 24.9049 958.402 24.9699 958.419 25.0457 958.419L26.3297 958.419C26.5734 958.419 26.5738 957.866 26.3297 957.866L25.4033 957.866 25.4033 955.64C25.4033 955.383 24.7695 955.384 24.7695 955.64Z" fill="#EBEAE6"/><path d="M27.6867 958.443C27.9901 958.443 28.2325 958.366 28.414 958.212 28.5955 958.057 28.6863 957.815 28.6863 957.484L28.6863 956.408C28.6863 956.077 28.5955 955.835 28.414 955.68 28.2325 955.526 27.9901 955.449 27.6867 955.449 27.386 955.449 27.1449 955.526 26.9635 955.68 26.782 955.835 26.6913 956.077 26.6913 956.408L26.6913 957.484C26.6913 957.815 26.782 958.057 26.9635 958.212 27.1449 958.366 27.386 958.443 27.6867 958.443ZM27.3251 956.408C27.3251 956.137 27.4456 956.001 27.6867 956.001 27.9305 956.001 28.0523 956.137 28.0523 956.408L28.0523 957.484C28.0523 957.755 27.9304 957.891 27.6867 957.891 27.4456 957.891 27.3251 957.755 27.3251 957.484L27.3251 956.408Z" fill="#EBEAE6"/><path d="M19.4214 962.878 19.4214 961.397C19.4214 961.344 19.4068 961.306 19.3776 961.28 19.3483 961.255 19.3116 961.243 19.2674 961.243 19.209 961.243 19.1635 961.253 19.1312 961.273 19.0988 961.294 19.0637 961.338 19.0257 961.406L18.7343 961.937 18.4428 961.406C18.4049 961.338 18.3702 961.294 18.3386 961.273 18.3069 961.253 18.2619 961.243 18.2035 961.243 18.1593 961.243 18.1225 961.255 18.0933 961.28 18.0641 961.306 18.0495 961.344 18.0495 961.397L18.0495 962.878C18.0495 963.007 18.3575 963.006 18.3575 962.878L18.3575 961.84 18.63 962.352C18.6521 962.393 18.6861 962.413 18.7319 962.413 18.7793 962.413 18.8141 962.393 18.8362 962.352L19.1134 961.859 19.1134 962.878C19.1134 963.009 19.4214 963.005 19.4214 962.878Z"/><path d="M19.8752 963.148C19.8033 963.202 19.7302 963.228 19.656 963.228 19.6039 963.228 19.5778 963.273 19.5778 963.362 19.5778 963.417 19.5897 963.453 19.6134 963.471 19.6801 963.522 19.9405 963.506 20.0659 963.383 20.0959 963.354 20.1192 963.33 20.1359 963.31 20.2014 963.232 20.2701 963.034 20.3195 962.903L20.6654 962.019C20.6702 962.007 20.6725 961.996 20.6725 961.983 20.6725 961.944 20.648 961.909 20.5991 961.878 20.5501 961.848 20.5051 961.833 20.464 961.833 20.4213 961.833 20.3945 961.85 20.3834 961.884L20.1536 962.587 19.8692 961.884C19.8582 961.85 19.8289 961.833 19.7815 961.833 19.7389 961.833 19.6943 961.847 19.6476 961.877 19.601 961.907 19.5777 961.941 19.5777 961.978 19.5777 961.989 19.5809 962.003 19.5872 962.018L19.9948 962.883C19.9869 963.007 19.947 963.095 19.8752 963.148Z"/><path d="M22.1487 961.337 22.1487 962.29 21.6914 961.406C21.6551 961.338 21.6219 961.294 21.5919 961.273 21.5151 961.221 21.3076 961.229 21.3076 961.34L21.3076 962.878C21.3076 963.007 21.6156 963.006 21.6156 962.878L21.6156 961.925 22.1251 962.878C22.2056 963.028 22.4569 962.986 22.4569 962.878L22.4569 961.337C22.4568 961.21 22.1487 961.21 22.1487 961.337Z"/><path d="M23.606 962.878 23.606 962.297C23.606 962.164 23.5641 962.054 23.4804 961.966 23.3967 961.879 23.2687 961.835 23.0966 961.835 23.0065 961.835 22.9208 961.852 22.8395 961.886 22.7581 961.92 22.7175 961.96 22.7175 962.006 22.7175 962.043 22.727 962.078 22.7459 962.11 22.7649 962.141 22.7901 962.157 22.8218 962.157 22.8297 962.157 22.8589 962.144 22.9095 962.117 22.96 962.09 23.0208 962.077 23.0919 962.077 23.163 962.077 23.2155 962.099 23.2495 962.144 23.2835 962.188 23.3004 962.241 23.3004 962.301L23.3004 962.333 23.2033 962.333C23.0248 962.333 22.8882 962.358 22.7934 962.409 22.6986 962.459 22.6512 962.547 22.6512 962.671 22.6512 962.777 22.68 962.858 22.7377 962.913 22.7954 962.968 22.8692 962.996 22.9593 962.996 23.0904 962.996 23.2105 962.93 23.3195 962.797L23.3195 962.871C23.3193 963.009 23.606 963.004 23.606 962.878ZM23.3003 962.539C23.3003 962.592 23.2767 962.642 23.2293 962.687 23.1819 962.732 23.1329 962.754 23.0823 962.754 23.0444 962.754 23.014 962.744 22.9911 962.724 22.9682 962.704 22.9568 962.673 22.9568 962.633 22.9568 962.576 22.984 962.538 23.0385 962.519 23.093 962.501 23.1685 962.491 23.2649 962.491L23.3004 962.491 23.3004 962.539Z"/><path d="M25.2493 962.944C25.3568 963.016 25.5088 962.948 25.5088 962.878L25.5088 962.316C25.5088 962.169 25.4669 962.052 25.3832 961.965 25.2994 961.878 25.2007 961.835 25.087 961.835 25.0159 961.835 24.9484 961.855 24.8844 961.896 24.8204 961.937 24.7686 961.996 24.7292 962.074 24.7039 962.002 24.6648 961.945 24.6119 961.901 24.559 961.857 24.4994 961.835 24.433 961.835 24.2923 961.835 24.1881 961.896 24.1202 962.017L24.1202 961.945C24.1202 961.814 23.8335 961.821 23.8335 961.944L23.8335 962.878C23.8335 962.903 23.8481 962.925 23.8774 962.945 23.977 963.013 24.1392 962.953 24.1392 962.878L24.1392 962.318C24.1392 962.252 24.1573 962.2 24.1937 962.162 24.23 962.124 24.2734 962.105 24.324 962.105 24.3762 962.105 24.4216 962.125 24.4603 962.164 24.4989 962.204 24.5183 962.255 24.5183 962.318L24.5183 962.88C24.5183 963.003 24.824 963.01 24.824 962.88L24.824 962.315C24.824 962.251 24.8426 962.199 24.8797 962.161 24.9168 962.122 24.9606 962.103 25.0112 962.103 25.0634 962.103 25.1083 962.122 25.1463 962.161 25.1842 962.199 25.2032 962.252 25.2032 962.318L25.2032 962.878C25.2031 962.901 25.2184 962.924 25.2493 962.944Z"/><path d="M26.4802 962.491C26.6268 962.491 26.7006 962.456 26.7006 962.282 26.7006 962.154 26.6528 962.047 26.5573 961.962 26.4617 961.877 26.3468 961.835 26.2125 961.835 26.0687 961.835 25.9463 961.882 25.8452 961.975 25.7441 962.068 25.6936 962.179 25.6936 962.309L25.6936 962.51C25.6936 962.656 25.7469 962.773 25.8535 962.862 25.9602 962.951 26.098 962.996 26.267 962.996 26.3855 962.996 26.4846 962.974 26.5644 962.931 26.6441 962.887 26.684 962.844 26.684 962.799 26.684 962.771 26.673 962.741 26.6509 962.711 26.6287 962.68 26.6011 962.664 26.5679 962.664 26.5505 962.664 26.5126 962.679 26.4542 962.709 26.3957 962.739 26.3365 962.754 26.2765 962.754 26.1927 962.754 26.1256 962.733 26.0751 962.692 26.0245 962.65 25.9992 962.595 25.9992 962.527L25.9992 962.491 26.4802 962.491ZM25.9992 962.249C25.9992 962.198 26.0197 962.156 26.0608 962.124 26.1019 962.093 26.1501 962.077 26.2054 962.077 26.2638 962.077 26.3132 962.093 26.3535 962.125 26.3938 962.158 26.4139 962.2 26.4139 962.252 26.4139 962.275 26.4088 962.291 26.3985 962.299 26.3883 962.307 26.3705 962.311 26.3452 962.311L25.9993 962.311 25.9993 962.249Z"/><path d="M27.3807 961.337 27.3807 962.878C27.3807 963.007 27.6887 963.006 27.6887 962.878L27.6887 961.337C27.6887 961.209 27.3807 961.21 27.3807 961.337Z"/><path d="M28.598 962.379C28.557 962.357 28.5124 962.338 28.4645 962.322 28.4165 962.306 28.3715 962.293 28.3297 962.284 28.2878 962.275 28.2527 962.262 28.2242 962.245 28.1958 962.228 28.1815 962.206 28.1815 962.18 28.1815 962.154 28.1958 962.13 28.2242 962.109 28.2526 962.087 28.2937 962.077 28.3474 962.077 28.3963 962.077 28.4489 962.087 28.505 962.106 28.561 962.126 28.5953 962.136 28.6081 962.136 28.6396 962.136 28.6661 962.118 28.6874 962.083 28.7087 962.047 28.7194 962.016 28.7194 961.989 28.7194 961.946 28.681 961.91 28.6045 961.88 28.5278 961.85 28.4406 961.835 28.3426 961.835 28.1957 961.835 28.0883 961.87 28.0204 961.941 27.9524 962.012 27.9185 962.096 27.9185 962.194 27.9185 962.265 27.9378 962.323 27.9766 962.368 28.0153 962.414 28.0623 962.446 28.1176 962.465 28.1728 962.484 28.2277 962.501 28.2823 962.515 28.3367 962.529 28.3834 962.546 28.4221 962.568 28.4608 962.589 28.4801 962.618 28.4801 962.655 28.4801 962.721 28.4218 962.754 28.305 962.754 28.2459 962.754 28.1948 962.746 28.1516 962.73 28.1085 962.713 28.0736 962.697 28.0473 962.681 28.0209 962.665 27.9989 962.657 27.9814 962.657 27.9542 962.657 27.9302 962.673 27.9094 962.703 27.8886 962.734 27.8783 962.764 27.8783 962.792 27.8783 962.846 27.9201 962.893 28.0039 962.935 28.0876 962.976 28.1887 962.996 28.3072 962.996 28.4446 962.996 28.5516 962.965 28.6282 962.902 28.7048 962.839 28.7431 962.753 28.7431 962.644 28.7431 962.579 28.7291 962.524 28.7013 962.479 28.6734 962.434 28.639 962.4 28.598 962.379Z"/><path d="M33.2059 965.942C33.5488 966.284 34.0041 966.472 34.4877 966.472 35.2296 966.472 35.889 966.028 36.1675 965.342 36.2496 965.139 36.1521 964.909 35.9497 964.826 35.7472 964.744 35.5166 964.842 35.4345 965.044 35.2776 965.431 34.906 965.681 34.4877 965.681 34.215 965.681 33.9582 965.575 33.7648 965.382 33.6673 965.284 33.5921 965.171 33.5411 965.045 33.4594 964.842 33.2289 964.744 33.0264 964.826 32.8238 964.908 32.7259 965.138 32.8076 965.341 32.8985 965.566 33.0324 965.768 33.2059 965.942Z"/><path d="M33.1313 963.296 33.1313 963.127C33.1313 962.908 32.9542 962.731 32.7358 962.731 32.5174 962.731 32.3403 962.908 32.3403 963.127L32.3403 963.296C32.3403 963.514 32.5174 963.691 32.7358 963.691 32.9542 963.691 33.1313 963.514 33.1313 963.296Z"/><path d="M36.6351 963.296 36.6351 963.127C36.6351 962.908 36.458 962.731 36.2396 962.731 36.0212 962.731 35.8441 962.908 35.8441 963.127L35.8441 963.296C35.8441 963.514 36.0212 963.691 36.2396 963.691 36.458 963.691 36.6351 963.514 36.6351 963.296Z"/><path d="M38.7872 964.695 37.9823 964.695C37.7718 964.695 37.5982 964.86 37.5873 965.07 37.5721 965.364 37.5156 965.653 37.4194 965.929 37.3475 966.136 37.4565 966.361 37.6628 966.433 37.869 966.505 38.0946 966.396 38.1664 966.19 38.246 965.961 38.3039 965.726 38.3397 965.486L38.7872 965.486C39.4559 965.486 40 964.942 40 964.273L40 963.887C40 963.439 39.7557 963.047 39.3936 962.837L39.3936 959.628C39.3936 958.519 38.4913 957.617 37.3823 957.617L36.9687 957.617C36.6165 957.004 35.9518 956.615 35.2392 956.615L33.7193 956.615 33.7193 955.116C33.7193 954.219 32.9895 953.489 32.0925 953.489L18.4095 953.489C18.1911 953.489 18.014 953.666 18.014 953.885 18.014 954.103 18.1911 954.28 18.4095 954.28L32.0925 954.28C32.5534 954.28 32.9283 954.655 32.9283 955.116L32.9283 956.616C31.2125 956.627 29.7978 957.927 29.605 959.595L13.791 959.595 13.791 955.116C13.791 954.655 14.166 954.28 14.6269 954.28L16.8275 954.28C17.0459 954.28 17.223 954.103 17.223 953.885 17.223 953.666 17.0459 953.489 16.8275 953.489L14.6269 953.489C13.7298 953.489 13.0001 954.219 13 955.116L13 955.116 13 955.116 13 959.99 13 969.766C13 970.663 13.7297 971.392 14.6267 971.392L28.2491 971.392C28.4675 971.392 28.6446 971.215 28.6446 970.997 28.6446 970.778 28.4675 970.601 28.2491 970.601L14.6267 970.601C14.1659 970.601 13.791 970.227 13.791 969.766L13.791 960.386 29.5818 960.386 29.5818 962.837C29.2197 963.047 28.9754 963.439 28.9754 963.887L28.9754 964.273C28.9754 964.942 29.5195 965.486 30.1882 965.486L30.6355 965.486C30.8259 966.769 31.638 967.84 32.7501 968.394L32.7501 968.779 32.6414 968.779C30.9583 968.779 29.5436 970.04 29.3508 971.711L28.9791 974.926C28.9617 975.074 29.0087 975.224 29.108 975.335 29.2073 975.447 29.35 975.511 29.4995 975.511L39.4758 975.511C39.6253 975.511 39.7681 975.447 39.8674 975.335 39.9667 975.224 40.0137 975.074 39.9963 974.927L39.6246 971.711C39.4317 970.04 38.017 968.779 36.3339 968.779L36.2253 968.779 36.2253 968.394C36.569 968.222 36.8888 968 37.1736 967.728 37.3319 967.578 37.338 967.327 37.1874 967.169 37.0368 967.011 36.7864 967.005 36.6282 967.156 36.0485 967.707 35.2883 968.011 34.4877 968.011 34.0677 968.011 33.6667 967.928 33.3006 967.776 33.3 967.776 33.2994 967.776 33.2988 967.775 32.2245 967.33 31.4514 966.3 31.3881 965.07 31.3772 964.86 31.2036 964.695 30.9931 964.695L30.1881 964.695C29.9556 964.695 29.7664 964.506 29.7664 964.273L29.7664 963.886C29.7664 963.654 29.9556 963.465 30.1881 963.465L30.988 963.465C31.2064 963.465 31.3835 963.288 31.3835 963.069L31.3835 962.004 33.9259 962.004C35.3395 962.004 36.5642 961.097 36.9946 959.79 37.3778 960.268 37.5917 960.867 37.5917 961.487L37.5917 963.069C37.5917 963.288 37.7688 963.465 37.9872 963.465L38.7872 963.465C39.0197 963.465 39.2089 963.654 39.2089 963.886L39.2089 964.273C39.209 964.506 39.0198 964.695 38.7872 964.695ZM36.3339 969.57C37.6151 969.57 38.692 970.53 38.8388 971.802L39.1761 974.72 37.7714 974.72 37.7714 973.544C37.7714 973.325 37.5944 973.148 37.3759 973.148 37.1575 973.148 36.9804 973.325 36.9804 973.544L36.9804 974.72 31.9949 974.72 31.9949 973.544C31.9949 973.325 31.8178 973.148 31.5994 973.148 31.381 973.148 31.2039 973.325 31.2039 973.544L31.2039 974.72 29.7992 974.72 30.1366 971.802C30.2833 970.53 31.3602 969.57 32.6414 969.57L32.75 969.57 32.75 969.642C32.75 970.6 33.5295 971.38 34.4876 971.38 34.9517 971.38 35.3881 971.199 35.7165 970.87 36.0446 970.542 36.2252 970.106 36.2252 969.642L36.2252 969.57 36.3339 969.57ZM35.4343 968.686 35.4343 969.642C35.4343 969.895 35.3359 970.133 35.1572 970.311 34.9783 970.49 34.7405 970.589 34.4877 970.589 33.9657 970.589 33.5411 970.164 33.5411 969.642L33.5411 968.686C33.8445 968.762 34.1614 968.803 34.4877 968.803 34.8105 968.803 35.1278 968.763 35.4343 968.686ZM37.2294 958.889C37.0825 958.757 36.8752 958.714 36.6884 958.778 36.5014 958.842 36.3639 959.003 36.3296 959.199 36.1243 960.366 35.1135 961.213 33.926 961.213L30.9881 961.213C30.7696 961.213 30.5926 961.39 30.5926 961.608L30.5926 962.674 30.3728 962.674 30.3728 959.984C30.3728 958.563 31.5291 957.406 32.9505 957.406L35.2391 957.406C35.6966 957.406 36.1212 957.672 36.3207 958.083L36.3703 958.185C36.4364 958.321 36.5746 958.408 36.7262 958.408L37.3823 958.408C38.0552 958.408 38.6025 958.956 38.6025 959.628L38.6025 962.674 38.3828 962.674 38.3828 961.488C38.3828 960.499 37.9624 959.552 37.2294 958.889Z"/></g></svg>