<svg width="27" height="26" xmlns="http://www.w3.org/2000/svg" xmlns:xlink="http://www.w3.org/1999/xlink" xml:space="preserve" overflow="hidden"><defs><clipPath id="clip0"><rect x="13" y="505" width="27" height="26"/></clipPath></defs><g clip-path="url(#clip0)" transform="translate(-13 -505)"><path d="M3.65625 9.34375 22.3438 9.34375C22.7925 9.34375 23.1562 9.7075 23.1562 10.1562L23.1562 23.1562 23.1562 23.1562 2.84375 23.1562 2.84375 23.1562 2.84375 10.1562C2.84375 9.7075 3.20752 9.34375 3.65625 9.34375Z" fill="#7E8589" transform="matrix(1.03846 0 0 1 13 505)"/><path d="M4.46875 10.9688 21.5312 10.9688 21.5312 23.1562 4.46875 23.1562Z" fill="#E9EEF2" transform="matrix(1.03846 0 0 1 13 505)"/><path d="M1.21875 22.3438 24.7812 22.3438 24.7812 22.3438 24.7812 23.1562C24.7812 24.0537 24.0537 24.7812 23.1562 24.7812L2.84375 24.7812C1.94629 24.7812 1.21875 24.0537 1.21875 23.1562L1.21875 22.3438 1.21875 22.3438Z" fill="#C3C6C7" transform="matrix(1.03846 0 0 1 13 505)"/><path d="M4.0625 12.1875C4.0625 12.8606 3.51685 13.4062 2.84375 13.4062 2.17065 13.4062 1.625 12.8606 1.625 12.1875 1.625 11.5144 2.17065 10.9688 2.84375 10.9688 3.51685 10.9688 4.0625 11.5144 4.0625 12.1875Z" fill="#2D85CC" transform="matrix(1.03846 0 0 1 13 505)"/><path d="M5.6875 7.71875 1.21875 3.92707 13 1.21875 24.7812 3.92707 20.3125 7.71875Z" fill="#414649" transform="matrix(1.03846 0 0 1 13 505)"/><path d="M20.3125 9.34375 5.6875 9.34375 5.6875 5.6875C5.6875 5.6875 9.34375 4.46875 13 4.46875 16.6562 4.46875 20.3125 5.6875 20.3125 5.6875Z" fill="#2D85CC" transform="matrix(1.03846 0 0 1 13 505)"/><path d="M5.6875 9.34375 5.6875 7.71875C5.6875 7.71875 9.34375 6.5 13 6.5 16.6562 6.5 20.3125 7.71875 20.3125 7.71875L20.3125 9.34375Z" fill="#4F5659" transform="matrix(1.03846 0 0 1 13 505)"/><path d="M24.7812 21.9375 23.5625 21.9375 23.5625 10.1562C23.5617 9.48345 23.0166 8.93826 22.3438 8.9375L20.7188 8.9375 20.7188 7.90664 25.0441 4.23668C25.2152 4.0916 25.2364 3.83525 25.0913 3.6641 25.0346 3.59719 24.9578 3.55043 24.8722 3.53082L13.091 0.822504C13.0311 0.808691 12.9689 0.808691 12.909 0.822504L1.12775 3.53082C0.909066 3.58099 0.772459 3.79894 0.822626 4.01762 0.842243 4.10311 0.888997 4.17996 0.955906 4.23668L2.4375 5.49397 2.4375 10.6139C1.56845 10.838 1.04555 11.7241 1.26958 12.5931 1.41725 13.166 1.86462 13.6134 2.4375 13.7611L2.4375 21.9375 1.21875 21.9375C0.994383 21.9375 0.8125 22.1194 0.8125 22.3438L0.8125 23.1562C0.813759 24.2775 1.72244 25.1862 2.84375 25.1875L23.1562 25.1875C24.2775 25.1862 25.1862 24.2775 25.1875 23.1562L25.1875 22.3438C25.1875 22.1194 25.0056 21.9375 24.7812 21.9375ZM22.75 10.1562 22.75 21.9375 21.9375 21.9375 21.9375 10.9688C21.9375 10.7444 21.7556 10.5625 21.5312 10.5625L4.46875 10.5625C4.24438 10.5625 4.0625 10.7444 4.0625 10.9688L4.0625 11.1144C3.84778 10.8701 3.56477 10.6958 3.25 10.6139L3.25 10.1562C3.25025 9.932 3.43199 9.75025 3.65625 9.75L22.3438 9.75C22.568 9.75025 22.7497 9.932 22.75 10.1562ZM21.125 21.9375 4.875 21.9375 4.875 11.375 21.125 11.375ZM19.9062 7.16864C18.7489 6.83033 15.8966 6.09375 13 6.09375 10.1034 6.09375 7.25105 6.83008 6.09375 7.16864L6.09375 5.98614C7.00603 5.71076 10.0205 4.875 13 4.875 15.9758 4.875 18.9933 5.71091 19.9062 5.98625ZM6.09375 8.9375 6.09375 8.01739C7.00548 7.74216 10.02 6.90625 13 6.90625 15.9763 6.90625 18.9938 7.74231 19.9062 8.0175L19.9062 8.9375ZM13 1.63556 23.9006 4.14152 20.7188 6.84125 20.7188 5.6875C20.7188 5.51266 20.6069 5.35742 20.441 5.30212 20.2891 5.25149 16.6799 4.0625 13 4.0625 9.32014 4.0625 5.71086 5.25149 5.55902 5.30212 5.39312 5.35742 5.28125 5.51266 5.28125 5.6875L5.28125 6.84125 2.0994 4.14152ZM5.28125 7.90664 5.28125 8.9375 3.65625 8.9375C3.51784 8.93745 3.38044 8.96106 3.25 9.00738L3.25 6.18333ZM2.03125 12.1875C2.03125 11.7387 2.39502 11.375 2.84375 11.375 3.29248 11.375 3.65625 11.7387 3.65625 12.1875 3.65625 12.6363 3.29248 13 2.84375 13 2.39524 12.9995 2.03178 12.636 2.03125 12.1875ZM3.25 13.7611C3.56477 13.6792 3.84778 13.5049 4.0625 13.2606L4.0625 21.9375 3.25 21.9375ZM24.375 23.1562C24.3742 23.829 23.829 24.3742 23.1562 24.375L2.84375 24.375C2.17098 24.3742 1.62578 23.829 1.625 23.1562L1.625 22.75 24.375 22.75Z" transform="matrix(1.03846 0 0 1 13 505)"/><path d="M6.90625 13.8125 7.71875 13.8125C7.9431 13.8125 8.125 13.6306 8.125 13.4062 8.125 13.1819 7.9431 13 7.71875 13L6.90625 13C6.6819 13 6.5 13.1819 6.5 13.4062 6.5 13.6306 6.6819 13.8125 6.90625 13.8125Z" transform="matrix(1.03846 0 0 1 13 505)"/><path d="M9.34375 13.8125 15.8438 13.8125C16.0681 13.8125 16.25 13.6306 16.25 13.4062 16.25 13.1819 16.0681 13 15.8438 13L9.34375 13C9.1194 13 8.9375 13.1819 8.9375 13.4062 8.9375 13.6306 9.1194 13.8125 9.34375 13.8125Z" transform="matrix(1.03846 0 0 1 13 505)"/><path d="M17.4688 13.8125 19.0938 13.8125C19.3181 13.8125 19.5 13.6306 19.5 13.4062 19.5 13.1819 19.3181 13 19.0938 13L17.4688 13C17.2444 13 17.0625 13.1819 17.0625 13.4062 17.0625 13.6306 17.2444 13.8125 17.4688 13.8125Z" transform="matrix(1.03846 0 0 1 13 505)"/><path d="M6.90625 20.3125 11.375 20.3125C11.5994 20.3125 11.7812 20.1306 11.7812 19.9062 11.7812 19.6819 11.5994 19.5 11.375 19.5L6.90625 19.5C6.6819 19.5 6.5 19.6819 6.5 19.9062 6.5 20.1306 6.6819 20.3125 6.90625 20.3125Z" transform="matrix(1.03846 0 0 1 13 505)"/><path d="M17.0625 19.5 13 19.5C12.7756 19.5 12.5938 19.6819 12.5938 19.9062 12.5938 20.1306 12.7756 20.3125 13 20.3125L17.0625 20.3125C17.2869 20.3125 17.4688 20.1306 17.4688 19.9062 17.4688 19.6819 17.2869 19.5 17.0625 19.5Z" transform="matrix(1.03846 0 0 1 13 505)"/><path d="M19.0938 14.625 13.8125 14.625C13.5881 14.625 13.4062 14.8069 13.4062 15.0312 13.4062 15.2556 13.5881 15.4375 13.8125 15.4375L19.0938 15.4375C19.3181 15.4375 19.5 15.2556 19.5 15.0312 19.5 14.8069 19.3181 14.625 19.0938 14.625Z" transform="matrix(1.03846 0 0 1 13 505)"/><path d="M10.5625 14.625C10.3381 14.625 10.1562 14.8069 10.1562 15.0312 10.1562 15.2556 10.3381 15.4375 10.5625 15.4375L12.1875 15.4375C12.4119 15.4375 12.5938 15.2556 12.5938 15.0312 12.5938 14.8069 12.4119 14.625 12.1875 14.625Z" transform="matrix(1.03846 0 0 1 13 505)"/><path d="M6.90625 15.4375 8.9375 15.4375C9.16185 15.4375 9.34375 15.2556 9.34375 15.0312 9.34375 14.8069 9.16185 14.625 8.9375 14.625L6.90625 14.625C6.6819 14.625 6.5 14.8069 6.5 15.0312 6.5 15.2556 6.6819 15.4375 6.90625 15.4375Z" transform="matrix(1.03846 0 0 1 13 505)"/><path d="M19.0938 17.875 10.5625 17.875C10.3381 17.875 10.1562 18.0569 10.1562 18.2812 10.1562 18.5056 10.3381 18.6875 10.5625 18.6875L19.0938 18.6875C19.3181 18.6875 19.5 18.5056 19.5 18.2812 19.5 18.0569 19.3181 17.875 19.0938 17.875Z" transform="matrix(1.03846 0 0 1 13 505)"/><path d="M6.90625 18.6875 8.9375 18.6875C9.16185 18.6875 9.34375 18.5056 9.34375 18.2812 9.34375 18.0569 9.16185 17.875 8.9375 17.875L6.90625 17.875C6.6819 17.875 6.5 18.0569 6.5 18.2812 6.5 18.5056 6.6819 18.6875 6.90625 18.6875Z" transform="matrix(1.03846 0 0 1 13 505)"/><path d="M6.90625 17.0625 14.2188 17.0625C14.4431 17.0625 14.625 16.8806 14.625 16.6562 14.625 16.4319 14.4431 16.25 14.2188 16.25L6.90625 16.25C6.6819 16.25 6.5 16.4319 6.5 16.6562 6.5 16.8806 6.6819 17.0625 6.90625 17.0625Z" transform="matrix(1.03846 0 0 1 13 505)"/><path d="M17.4688 17.0625C17.6931 17.0625 17.875 16.8806 17.875 16.6562 17.875 16.4319 17.6931 16.25 17.4688 16.25L15.8438 16.25C15.6194 16.25 15.4375 16.4319 15.4375 16.6562 15.4375 16.8806 15.6194 17.0625 15.8438 17.0625Z" transform="matrix(1.03846 0 0 1 13 505)"/><path d="M19.5 16.6562C19.5 16.8806 19.3181 17.0625 19.0938 17.0625 18.8694 17.0625 18.6875 16.8806 18.6875 16.6562 18.6875 16.4319 18.8694 16.25 19.0938 16.25 19.3181 16.25 19.5 16.4319 19.5 16.6562Z" transform="matrix(1.03846 0 0 1 13 505)"/></g></svg>