<svg width="27" height="27" xmlns="http://www.w3.org/2000/svg" xmlns:xlink="http://www.w3.org/1999/xlink" xml:space="preserve" overflow="hidden"><defs><clipPath id="clip0"><rect x="13" y="706" width="27" height="27"/></clipPath></defs><g clip-path="url(#clip0)" transform="translate(-13 -706)"><path d="M34.1864 728.67C34.856 728.67 35.3988 729.213 35.3988 729.883L35.3988 729.883C35.3988 730.553 34.856 731.095 34.1864 731.095L18.8134 731.095C18.1438 731.095 17.601 730.553 17.601 729.883L17.601 729.883C17.601 729.213 18.1438 728.67 18.8134 728.67Z" fill="#2D3C6B"/><path d="M33.1445 728.67 19.8555 728.67 22.8238 723.08 30.1762 723.08Z" fill="#FFC839"/><path d="M22.662 726.983 23.8384 724.767 29.1616 724.767 30.338 726.983Z" fill="#FF9100"/><path d="M19.9938 707.905 19.9938 716.361C19.9949 718.355 21.0786 720.191 22.8238 721.156L30.1762 721.156C31.9214 720.191 33.0051 718.355 33.0062 716.361L33.0062 707.905Z" fill="#FFC839"/><path d="M24.8163 714.53 23.5836 712.846 25.6581 713.072 26.5 711.162 27.3419 713.072 29.4164 712.846 28.1837 714.53 29.4164 716.214 27.3419 715.988 26.5 717.898 25.6581 715.988 23.5836 716.214Z" fill="#FCF9F0"/><path d="M22.8238 721.156 30.1764 721.156 30.1764 723.08 22.8238 723.08Z" fill="#FF9100"/><path d="M36.6771 709.475 33.0068 709.475 33.0068 711.162 36.6771 711.162C37.3757 711.163 37.9419 711.729 37.9427 712.428L37.9427 715.114C37.9442 715.7 37.5415 716.211 36.9707 716.345L32.9207 717.312C32.802 717.987 32.5572 718.634 32.1991 719.218L37.3631 717.987C38.6947 717.672 39.6344 716.482 39.6309 715.114L39.6309 712.428C39.629 710.797 38.3076 709.476 36.6771 709.475Z" fill="#FF9100"/><path d="M16.3229 709.475 19.9932 709.475 19.9932 711.162 16.3229 711.162C15.6243 711.163 15.0581 711.729 15.0573 712.428L15.0573 715.114C15.0558 715.7 15.4585 716.211 16.0293 716.345L20.0793 717.312C20.1979 717.987 20.4427 718.634 20.8009 719.218L15.6367 717.987C14.3054 717.672 13.3661 716.482 13.3698 715.114L13.3698 712.428C13.3716 710.798 14.6927 709.477 16.3229 709.475Z" fill="#FF9100"/></g></svg>