<svg width="27" height="27" xmlns="http://www.w3.org/2000/svg" xmlns:xlink="http://www.w3.org/1999/xlink" xml:space="preserve" overflow="hidden"><defs><clipPath id="clip0"><rect x="13" y="220" width="27" height="27"/></clipPath></defs><g clip-path="url(#clip0)" transform="translate(-13 -220)"><path d="M18.7484 236.94 19.003 237.466C19.003 237.466 23.0412 240.745 26.4999 240.745 29.9587 240.745 34.0151 237.466 34.0151 237.466L34.2512 236.94 34.2513 236.94C33.8631 235.78 33.3863 234.187 33.0519 232.504L32.3128 232.089 20.5785 232.089 19.9478 232.504C19.6133 234.187 19.1365 235.78 18.7483 236.94Z" fill="#365E7D"/><path d="M22.178 232.267 22.4491 232.089 20.5785 232.089 19.9478 232.504C19.6133 234.187 19.1365 235.78 18.7483 236.94L18.7484 236.94 19.003 237.466C19.003 237.466 19.6245 237.97 20.5886 238.584 21.1536 236.696 21.7298 234.522 22.178 232.267Z" fill="#294B64"/><path d="M39.7395 228.515 27.1747 224.268C26.7371 224.12 26.263 224.12 25.8254 224.268L13.2605 228.515C12.9361 228.624 12.9075 229.072 13.2153 229.222L25.5766 235.249C26.1594 235.533 26.8406 235.533 27.4234 235.249L39.7847 229.222C40.0925 229.072 40.0639 228.624 39.7395 228.515Z" fill="#477B9E"/><path d="M17.0181 229.222C16.7103 229.072 16.7389 228.624 17.0633 228.515L28.4014 224.683 27.1746 224.268C26.737 224.12 26.2629 224.12 25.8253 224.268L13.2605 228.515C12.9361 228.624 12.9075 229.072 13.2153 229.222L25.5766 235.249C26.1594 235.533 26.8406 235.533 27.4234 235.249L28.4014 234.772Z" fill="#3F6D8E"/><path d="M36.9554 239.187C36.7304 239.187 36.548 239.005 36.548 238.78L36.548 231.245C36.548 231.051 36.4173 230.882 36.2301 230.833L27.0345 228.408C26.8169 228.351 26.687 228.128 26.7444 227.911 26.8018 227.693 27.0245 227.563 27.2423 227.62L36.4371 230.045C36.9818 230.187 37.3629 230.681 37.3629 231.244L37.3629 238.78C37.3628 239.005 37.1804 239.187 36.9554 239.187Z" fill="#ECF4FF"/><path d="M37.6687 239.685 36.2421 239.685 36.0724 242.324C36.0584 242.543 36.227 242.728 36.44 242.728L37.4708 242.728C37.6837 242.728 37.8523 242.543 37.8383 242.324Z" fill="#FFD064"/><path d="M37.0008 242.324 37.1705 239.685 36.2421 239.685 36.0724 242.324C36.0584 242.543 36.227 242.728 36.44 242.728L37.3684 242.728C37.1554 242.728 36.9868 242.543 37.0008 242.324Z" fill="#EBB044"/><path d="M37.2856 237.789 36.6252 237.789C36.2962 237.789 36.027 238.058 36.027 238.387L36.027 239.575C36.027 239.683 36.1146 239.77 36.2226 239.77L37.6882 239.77C37.7962 239.77 37.8838 239.683 37.8838 239.575L37.8838 238.387C37.8838 238.058 37.6146 237.789 37.2856 237.789Z" fill="#FFE07D"/><path d="M37.0773 239.575 37.0773 238.387C37.0773 238.127 37.2466 237.904 37.4806 237.823 37.4193 237.801 37.3539 237.789 37.2856 237.789L36.6252 237.789C36.2962 237.789 36.027 238.058 36.027 238.387L36.027 239.575C36.027 239.683 36.1146 239.77 36.2226 239.77L37.2729 239.77C37.1648 239.77 37.0773 239.683 37.0773 239.575Z" fill="#FFD064"/><path d="M26.584 226.881C25.8006 226.833 25.1505 227.455 25.1505 228.228L25.1505 228.235C25.1522 228.582 25.4435 228.859 25.7913 228.859L27.2088 228.859C27.5449 228.859 27.8689 228.599 27.8479 228.162 27.8153 227.481 27.2644 226.922 26.584 226.881Z" fill="#3F6D8E"/><path d="M26.3729 228.235C26.3729 228.232 26.3729 228.23 26.3729 228.228 26.3729 227.703 26.672 227.249 27.1087 227.026 26.9489 226.944 26.7717 226.892 26.5841 226.881 25.8006 226.833 25.1505 227.455 25.1505 228.228L25.1505 228.235C25.1523 228.582 25.4436 228.859 25.7913 228.859L27.0136 228.859C26.6659 228.859 26.3746 228.582 26.3729 228.235Z" fill="#365E7D"/><path d="M34.2513 236.94C32.8352 238.104 30.5325 239.407 28.0449 240.208 27.0589 240.526 25.966 240.534 24.9548 240.208 22.4728 239.408 20.171 238.109 18.7484 236.94 18.6123 237.347 18.487 237.7 18.3827 237.986 18.2035 238.476 18.3579 239.028 18.7683 239.35 21.0426 241.138 23.4433 242.114 24.9548 242.601 25.454 242.762 25.9754 242.843 26.4998 242.843 27.0243 242.843 27.5457 242.762 28.0449 242.601 29.5564 242.114 31.9571 241.138 34.2313 239.35 34.6418 239.028 34.7962 238.476 34.617 237.986 34.5127 237.7 34.3874 237.347 34.2513 236.94Z" fill="#FFE07D"/><path d="M20.6803 238.275C19.9375 237.834 19.2812 237.378 18.7484 236.94 18.6123 237.347 18.487 237.7 18.3827 237.986 18.2034 238.476 18.3578 239.027 18.7683 239.35 19.1973 239.687 19.6307 239.995 20.0619 240.277 20.2629 239.654 20.4714 238.984 20.6803 238.275Z" fill="#FFD064"/></g></svg>