<svg width="13" height="13" xmlns="http://www.w3.org/2000/svg" xmlns:xlink="http://www.w3.org/1999/xlink" xml:space="preserve" overflow="hidden"><defs><clipPath id="clip0"><rect x="322" y="158" width="13" height="13"/></clipPath></defs><g clip-path="url(#clip0)" transform="translate(-322 -158)"><path d="M334.686 168.346C334.429 168.655 334.048 168.833 333.646 168.833L323.354 168.833C322.952 168.833 322.571 168.655 322.314 168.346L327.281 164.208 327.796 164.56C328.22 164.852 328.78 164.852 329.204 164.56L329.719 164.208 334.686 168.346Z" fill="#1E88E5"/><path d="M334.762 160.757 329.719 164.208 329.204 164.56C328.78 164.852 328.22 164.852 327.796 164.56L327.281 164.208 322.238 160.752C322.492 160.386 322.909 160.167 323.354 160.167L333.646 160.167C334.093 160.164 334.512 160.386 334.762 160.757Z" fill="#64B5F6"/><path d="M327.281 164.208 322.314 168.346C322.111 168.103 322 167.796 322 167.479L322 161.521C321.998 161.246 322.082 160.977 322.238 160.752L327.281 164.208Z" fill="#2196F3"/><path d="M335 161.521 335 167.479C335 167.796 334.889 168.103 334.686 168.346L329.719 164.208 334.762 160.757C334.918 160.981 335.001 161.248 335 161.521Z" fill="#2196F3"/></g></svg>