<svg width="27" height="27" xmlns="http://www.w3.org/2000/svg" xmlns:xlink="http://www.w3.org/1999/xlink" xml:space="preserve" overflow="hidden"><defs><clipPath id="clip0"><rect x="13" y="339" width="27" height="27"/></clipPath></defs><g clip-path="url(#clip0)" transform="translate(-13 -339)"><path d="M40 352.5C40 359.248 35.0485 364.84 28.5801 365.841 28.4341 365.863 28.287 365.884 28.1393 365.901 27.6643 365.959 27.1816 365.992 26.6929 365.998 26.6284 365.999 26.5645 366 26.5 366 26.4355 366 26.3716 365.999 26.3072 365.998 25.8184 365.992 25.3357 365.959 24.8607 365.901 24.713 365.884 24.5659 365.863 24.4199 365.841 17.9515 364.84 13 359.248 13 352.5 13 345.044 19.0442 339 26.5 339 33.9558 339 40 345.044 40 352.5Z" fill="#F2F2F2"/><path d="M40 352.5C40 353.009 39.9719 353.511 39.9168 354.005 39.9107 354.06 39.9047 354.116 39.8981 354.171 39.8634 354.451 39.8198 354.728 39.7685 355.003 39.7586 355.057 39.7481 355.111 39.7371 355.165 38.7827 359.934 35.3163 363.795 30.7753 365.308 30.0909 365.441 29.8479 365.02 29.8479 364.66 29.8479 364.216 29.8634 362.762 29.8634 360.956 29.8634 359.696 29.4319 358.875 28.9481 358.456 31.2861 358.196 33.7166 357.448 34.6809 354.687 34.7002 354.633 34.7184 354.578 34.7361 354.522 34.7901 354.354 34.838 354.179 34.881 353.996 34.8936 353.941 34.9063 353.886 34.9179 353.83 35.0441 353.232 35.1124 352.557 35.1124 351.795 35.1124 350.321 34.5884 349.117 33.7228 348.171 33.8633 347.831 34.3256 346.458 33.5905 344.598 33.5905 344.598 32.4587 344.236 29.8816 345.983 28.8027 345.683 27.6472 345.533 26.5 345.528 25.3528 345.533 24.1978 345.683 23.1206 345.983 20.5412 344.236 19.4072 344.598 19.4072 344.598 18.6744 346.458 19.1367 347.831 19.2767 348.171 18.4132 349.117 17.8853 350.321 17.8853 351.795 17.8853 352.557 17.9537 353.232 18.0804 353.83 18.0919 353.886 18.1041 353.941 18.1168 353.995 18.1597 354.178 18.2083 354.354 18.2623 354.522 18.2799 354.578 18.2986 354.633 18.3174 354.687 19.2811 357.443 21.705 358.201 24.0364 358.466 23.6501 358.804 23.3002 359.399 23.179 360.272 22.4087 360.617 20.4547 361.213 19.2508 359.15 19.2508 359.15 18.5366 357.854 17.1812 357.758 17.1812 357.758 15.8636 357.741 17.0891 358.579 17.0891 358.579 17.9735 358.994 18.5879 360.554 18.5879 360.554 19.3803 362.964 23.136 362.147 23.1421 363.275 23.1542 364.339 23.1542 364.66 23.1542 365.017 22.9068 365.435 22.2318 365.31 17.6881 363.798 14.2177 359.936 13.2628 355.165L13.2628 355.164C13.2518 355.111 13.2413 355.057 13.232 355.003 13.1802 354.728 13.1366 354.451 13.1025 354.171 13.0953 354.116 13.0892 354.06 13.0832 354.005 13.0281 353.511 13 353.009 13 352.5 13 345.044 19.0453 339 26.5 339 33.9553 339 40 345.044 40 352.5Z" fill="#222123"/><path d="M17.9928 358.179C17.8953 358.133 17.7894 358.152 17.7603 358.221 17.7288 358.288 17.7834 358.38 17.8815 358.424 17.978 358.47 18.0832 358.451 18.113 358.383 18.1471 358.316 18.0909 358.223 17.9928 358.179Z" fill="#222123"/><path d="M18.6215 358.712C18.5328 358.619 18.411 358.59 18.3449 358.65 18.2793 358.711 18.2958 358.837 18.384 358.93 18.4695 359.025 18.5956 359.053 18.6601 358.993 18.7273 358.933 18.7097 358.807 18.6215 358.712Z" fill="#222123"/><path d="M19.194 359.446C19.1092 359.327 18.9758 359.275 18.8926 359.332 18.8077 359.39 18.8077 359.534 18.8904 359.654 18.9741 359.774 19.1091 359.828 19.1923 359.77 19.2767 359.712 19.2767 359.567 19.194 359.446Z" fill="#222123"/><path d="M19.8475 360.177C19.7312 360.066 19.5725 360.043 19.4976 360.125 19.4238 360.207 19.4563 360.361 19.5742 360.47 19.6899 360.581 19.8475 360.603 19.9213 360.522 20.0002 360.441 19.9644 360.285 19.8475 360.177Z" fill="#222123"/><path d="M20.7065 360.681C20.5522 360.633 20.3996 360.683 20.3682 360.79 20.3374 360.896 20.4371 361.02 20.5897 361.067 20.7429 361.111 20.8944 361.063 20.9275 360.958 20.9589 360.85 20.8592 360.727 20.7065 360.681Z" fill="#222123"/><path d="M21.7403 360.842C21.5788 360.845 21.4521 360.936 21.4521 361.048 21.4537 361.158 21.5844 361.248 21.7458 361.244 21.9062 361.243 22.0362 361.15 22.0323 361.039 22.0323 360.928 21.9006 360.839 21.7403 360.842Z" fill="#222123"/><path d="M23.0605 360.864C23.0401 360.753 22.8969 360.688 22.7376 360.716 22.5806 360.744 22.4671 360.856 22.4869 360.967 22.5067 361.075 22.6517 361.142 22.8087 361.114 22.968 361.084 23.0793 360.973 23.0605 360.864Z" fill="#222123"/></g></svg>