<svg width="13" height="13" xmlns="http://www.w3.org/2000/svg" xmlns:xlink="http://www.w3.org/1999/xlink" xml:space="preserve" overflow="hidden"><defs><clipPath id="clip0"><rect x="191" y="158" width="13" height="13"/></clipPath></defs><g clip-path="url(#clip0)" transform="translate(-191 -158)"><path d="M200.549 169.809 198.912 166.973 198.664 166.906C198.217 167.165 197.645 167.011 197.387 166.564L195.22 162.812C194.962 162.364 195.115 161.792 195.563 161.534L195.588 161.216 194.02 158.5 193.744 158.384 193.744 158.384 192.796 158.932C191.383 159.748 190.899 161.554 191.714 162.967L195.499 169.523C196.315 170.935 198.121 171.419 199.534 170.604L200.483 170.056Z" fill="#0182FC"/><path d="M198.326 162.111C198.295 162.299 198.402 162.47 198.583 162.532 198.831 162.617 199.045 162.781 199.18 163.015 199.315 163.25 199.351 163.517 199.3 163.774 199.263 163.962 199.358 164.14 199.537 164.208 199.792 164.304 200.098 164.138 200.153 163.87 200.243 163.43 200.184 162.971 199.952 162.57 199.72 162.168 199.352 161.888 198.926 161.746 198.667 161.659 198.37 161.841 198.326 162.111Z" fill="#F79595"/><path d="M198.603 160.434 198.603 160.434C198.569 160.644 198.704 160.829 198.916 160.87 199.669 161.018 200.335 161.451 200.727 162.128 201.118 162.806 201.16 163.599 200.911 164.325 200.841 164.53 200.933 164.739 201.132 164.815L201.132 164.815C201.368 164.904 201.652 164.768 201.735 164.525 202.058 163.586 202.005 162.56 201.499 161.683 200.992 160.806 200.13 160.246 199.155 160.057 198.903 160.008 198.644 160.185 198.603 160.434Z" fill="#FD8087"/><path d="M198.877 158.776 198.877 158.777C198.842 158.99 198.982 159.181 199.201 159.214 200.477 159.406 201.618 160.107 202.273 161.241 202.928 162.376 202.964 163.714 202.493 164.915 202.412 165.121 202.507 165.338 202.71 165.415L202.71 165.415C202.939 165.501 203.214 165.377 203.306 165.145 203.864 163.723 203.82 162.138 203.045 160.796 202.27 159.453 200.919 158.623 199.409 158.395 199.162 158.358 198.916 158.535 198.877 158.776Z" fill="#FE646F"/><path d="M199.903 169.227C198.49 170.043 196.684 169.559 195.868 168.146L192.083 161.591C191.804 161.108 191.678 160.579 191.688 160.06 191.204 160.936 191.177 162.037 191.714 162.967L195.499 169.523C196.315 170.935 198.121 171.419 199.534 170.604L201.013 169.75C201.291 169.589 201.387 169.234 201.226 168.956L201.013 168.586Z" fill="#0172FB"/><path d="M199.27 166.556 198.664 166.906 200.483 170.056 201.013 169.75C201.291 169.589 201.387 169.234 201.226 168.956L199.945 166.737C199.809 166.501 199.507 166.42 199.27 166.556Z" fill="#D8ECFE"/><path d="M199.979 169.183 200.483 170.056 201.013 169.75C201.291 169.589 201.387 169.234 201.226 168.956L201.013 168.586Z" fill="#C4E2FF"/><path d="M196.35 160.509 195.069 158.291C194.908 158.013 194.553 157.917 194.275 158.078L193.744 158.384 195.563 161.534 196.169 161.184C196.405 161.048 196.486 160.745 196.35 160.509Z" fill="#D8ECFE"/></g></svg>