<svg xmlns="http://www.w3.org/2000/svg" version="1.1" xmlns:xlink="http://www.w3.org/1999/xlink" xmlns:svgjs="http://svgjs.com/svgjs" width="512" height="512" x="0" y="0" viewBox="0 0 31.617 31.617" style="enable-background:new 0 0 512 512" xml:space="preserve" class=""><g><path d="M25.694 13.182c.268-.915.416-1.88.416-2.881C26.11 4.612 21.5 0 15.81 0c-5.688 0-10.3 4.611-10.3 10.301 0 1.001.149 1.966.416 2.881-1.297 1.042-6.331 5.557-4.26 11.412 0 0 1.752-.15 3.191-2.811a11.26 11.26 0 0 0 2.361 4.543c-1.626.479-2.729 1.408-2.729 2.474 0 1.556 2.348 2.817 5.243 2.817 1.965 0 3.676-.582 4.573-1.44.494.065.992.11 1.503.11.512 0 1.011-.045 1.503-.11.899.858 2.609 1.44 4.574 1.44 2.896 0 5.245-1.262 5.245-2.817 0-1.065-1.104-1.995-2.73-2.474a11.274 11.274 0 0 0 2.362-4.543c1.438 2.66 3.188 2.811 3.188 2.811 2.074-5.856-2.96-10.371-4.256-11.412z" fill="#000000" data-original="#000000"></path></g></svg>