<svg xmlns="http://www.w3.org/2000/svg" version="1.1" xmlns:xlink="http://www.w3.org/1999/xlink" xmlns:svgjs="http://svgjs.com/svgjs" width="512" height="512" x="0" y="0" viewBox="0 0 152 152" style="enable-background:new 0 0 512 512" xml:space="preserve" class=""><g><g data-name="Layer 2"><g data-name="11.Wechat"><circle cx="50.79" cy="55.44" r="5.06" transform="rotate(-45 50.78 55.457)" fill="#000000" data-original="#000000" class=""></circle><circle cx="74.86" cy="55.44" r="5.06" fill="#000000" data-original="#000000" class=""></circle><circle cx="84.99" cy="79.77" r="3.91" fill="#000000" data-original="#000000" class=""></circle><path d="M76 0a76 76 0 1 0 76 76A76 76 0 0 0 76 0zM50.13 93.62c-3.9 2.08-7.8 4.22-11.69 6.26 1.08-3.43 2.21-6.83 3.41-10.24-6.19-4.13-11.3-10.32-13-17.7C22.38 47.06 55.71 26 82.47 41.08h-.1c7.54 4.17 13.53 11.41 15.27 20-23.28-1.66-39 17-32.89 34.64a42.91 42.91 0 0 1-14.62-2.1zm62.48 13.95c1 2.79 1.86 5.59 2.71 8.43-3.26-1.57-6.26-3.69-9.62-5-16.82 4.87-31-1.62-37.19-11.88-13.27-21.86 15.74-45.68 41.26-32.7 16.42 8.34 20.23 28.77 2.84 41.15z" fill="#000000" data-original="#000000" class=""></path><circle cx="104.18" cy="79.77" r="3.91" fill="#000000" data-original="#000000" class=""></circle></g></g></g></svg>